<svg width="200" height="200" viewBox="0 0 200 200" fill="none" xmlns="http://www.w3.org/2000/svg">
<g filter="url(#filter0_iii_6_347)">
<rect x="108.838" y="142.92" width="46.9564" height="76.304" rx="5" transform="rotate(-45 108.838 142.92)" fill="url(#paint0_linear_6_347)"/>
<rect x="108.838" y="142.92" width="46.9564" height="76.304" rx="5" transform="rotate(-45 108.838 142.92)" fill="url(#paint1_linear_6_347)"/>
<rect x="108.838" y="142.92" width="46.9564" height="76.304" rx="5" transform="rotate(-45 108.838 142.92)" fill="url(#paint2_linear_6_347)"/>
</g>
<rect x="108.838" y="142.92" width="46.9564" height="76.304" rx="5" transform="rotate(-45 108.838 142.92)" fill="url(#paint3_radial_6_347)"/>
<path fill-rule="evenodd" clip-rule="evenodd" d="M80.6641 148.73C117.986 148.73 148.242 118.475 148.242 81.1523C148.242 43.8299 117.986 13.5742 80.6641 13.5742C43.3416 13.5742 13.0859 43.8299 13.0859 81.1523C13.0859 118.475 43.3416 148.73 80.6641 148.73ZM80.6641 137.793C111.946 137.793 137.305 112.434 137.305 81.1523C137.305 49.8707 111.946 24.5117 80.6641 24.5117C49.3824 24.5117 24.0234 49.8707 24.0234 81.1523C24.0234 112.434 49.3824 137.793 80.6641 137.793Z" fill="url(#paint4_linear_6_347)"/>
<g filter="url(#filter1_f_6_347)">
<path fill-rule="evenodd" clip-rule="evenodd" d="M80.6642 147.202C117.143 147.202 146.714 117.631 146.714 81.1525C146.714 44.6741 117.143 15.1026 80.6642 15.1026C44.1857 15.1026 14.6143 44.6741 14.6143 81.1525C14.6143 117.631 44.1857 147.202 80.6642 147.202ZM80.6642 136.512C111.238 136.512 136.024 111.727 136.024 81.1525C136.024 50.5782 111.238 25.7928 80.6642 25.7928C50.0899 25.7928 25.3044 50.5782 25.3044 81.1525C25.3044 111.727 50.0899 136.512 80.6642 136.512Z" fill="url(#paint5_linear_6_347)"/>
<path fill-rule="evenodd" clip-rule="evenodd" d="M80.6642 147.202C117.143 147.202 146.714 117.631 146.714 81.1525C146.714 44.6741 117.143 15.1026 80.6642 15.1026C44.1857 15.1026 14.6143 44.6741 14.6143 81.1525C14.6143 117.631 44.1857 147.202 80.6642 147.202ZM80.6642 136.512C111.238 136.512 136.024 111.727 136.024 81.1525C136.024 50.5782 111.238 25.7928 80.6642 25.7928C50.0899 25.7928 25.3044 50.5782 25.3044 81.1525C25.3044 111.727 50.0899 136.512 80.6642 136.512Z" fill="url(#paint6_radial_6_347)"/>
</g>
<g filter="url(#filter2_f_6_347)">
<circle cx="80.6641" cy="81.1524" r="58.0941" fill="url(#paint7_linear_6_347)"/>
</g>
<g filter="url(#filter3_ii_6_347)">
<circle cx="80.6641" cy="81.1523" r="56.6406" fill="#64D0EA"/>
</g>
<ellipse cx="106.185" cy="52.7657" rx="10.3203" ry="12.709" transform="rotate(-38.8957 106.185 52.7657)" fill="url(#paint8_linear_6_347)"/>
<defs>
<filter id="filter0_iii_6_347" x="109.909" y="111.538" width="84.0161" height="84.2661" filterUnits="userSpaceOnUse" color-interpolation-filters="sRGB">
<feFlood flood-opacity="0" result="BackgroundImageFix"/>
<feBlend mode="normal" in="SourceGraphic" in2="BackgroundImageFix" result="shape"/>
<feColorMatrix in="SourceAlpha" type="matrix" values="0 0 0 0 0 0 0 0 0 0 0 0 0 0 0 0 0 0 127 0" result="hardAlpha"/>
<feOffset dx="-1" dy="1"/>
<feGaussianBlur stdDeviation="1.5"/>
<feComposite in2="hardAlpha" operator="arithmetic" k2="-1" k3="1"/>
<feColorMatrix type="matrix" values="0 0 0 0 0.4 0 0 0 0 0.239216 0 0 0 0 0.439216 0 0 0 1 0"/>
<feBlend mode="normal" in2="shape" result="effect1_innerShadow_6_347"/>
<feColorMatrix in="SourceAlpha" type="matrix" values="0 0 0 0 0 0 0 0 0 0 0 0 0 0 0 0 0 0 127 0" result="hardAlpha"/>
<feOffset dy="-0.25"/>
<feGaussianBlur stdDeviation="0.375"/>
<feComposite in2="hardAlpha" operator="arithmetic" k2="-1" k3="1"/>
<feColorMatrix type="matrix" values="0 0 0 0 0.639216 0 0 0 0 0.490196 0 0 0 0 0.643137 0 0 0 1 0"/>
<feBlend mode="normal" in2="effect1_innerShadow_6_347" result="effect2_innerShadow_6_347"/>
<feColorMatrix in="SourceAlpha" type="matrix" values="0 0 0 0 0 0 0 0 0 0 0 0 0 0 0 0 0 0 127 0" result="hardAlpha"/>
<feOffset dy="1"/>
<feGaussianBlur stdDeviation="0.75"/>
<feComposite in2="hardAlpha" operator="arithmetic" k2="-1" k3="1"/>
<feColorMatrix type="matrix" values="0 0 0 0 0.333333 0 0 0 0 0.27451 0 0 0 0 0.380392 0 0 0 1 0"/>
<feBlend mode="normal" in2="effect2_innerShadow_6_347" result="effect3_innerShadow_6_347"/>
</filter>
<filter id="filter1_f_6_347" x="14.3143" y="14.8026" width="132.7" height="132.7" filterUnits="userSpaceOnUse" color-interpolation-filters="sRGB">
<feFlood flood-opacity="0" result="BackgroundImageFix"/>
<feBlend mode="normal" in="SourceGraphic" in2="BackgroundImageFix" result="shape"/>
<feGaussianBlur stdDeviation="0.15" result="effect1_foregroundBlur_6_347"/>
</filter>
<filter id="filter2_f_6_347" x="22.3701" y="22.8583" width="116.588" height="116.588" filterUnits="userSpaceOnUse" color-interpolation-filters="sRGB">
<feFlood flood-opacity="0" result="BackgroundImageFix"/>
<feBlend mode="normal" in="SourceGraphic" in2="BackgroundImageFix" result="shape"/>
<feGaussianBlur stdDeviation="0.1" result="effect1_foregroundBlur_6_347"/>
</filter>
<filter id="filter3_ii_6_347" x="24.0234" y="24.3617" width="113.281" height="114.431" filterUnits="userSpaceOnUse" color-interpolation-filters="sRGB">
<feFlood flood-opacity="0" result="BackgroundImageFix"/>
<feBlend mode="normal" in="SourceGraphic" in2="BackgroundImageFix" result="shape"/>
<feColorMatrix in="SourceAlpha" type="matrix" values="0 0 0 0 0 0 0 0 0 0 0 0 0 0 0 0 0 0 127 0" result="hardAlpha"/>
<feOffset dy="1"/>
<feGaussianBlur stdDeviation="5"/>
<feComposite in2="hardAlpha" operator="arithmetic" k2="-1" k3="1"/>
<feColorMatrix type="matrix" values="0 0 0 0 0.168627 0 0 0 0 0.603922 0 0 0 0 0.956863 0 0 0 1 0"/>
<feBlend mode="normal" in2="shape" result="effect1_innerShadow_6_347"/>
<feColorMatrix in="SourceAlpha" type="matrix" values="0 0 0 0 0 0 0 0 0 0 0 0 0 0 0 0 0 0 127 0" result="hardAlpha"/>
<feOffset dy="-0.15"/>
<feGaussianBlur stdDeviation="15"/>
<feComposite in2="hardAlpha" operator="arithmetic" k2="-1" k3="1"/>
<feColorMatrix type="matrix" values="0 0 0 0 0.137255 0 0 0 0 0.607843 0 0 0 0 0.984314 0 0 0 1 0"/>
<feBlend mode="normal" in2="effect1_innerShadow_6_347" result="effect2_innerShadow_6_347"/>
</filter>
<linearGradient id="paint0_linear_6_347" x1="112.774" y1="207.692" x2="139.843" y2="154.383" gradientUnits="userSpaceOnUse">
<stop stop-color="#A0659C"/>
<stop offset="1" stop-color="#895792"/>
</linearGradient>
<linearGradient id="paint1_linear_6_347" x1="132.247" y1="146.234" x2="132.316" y2="173.027" gradientUnits="userSpaceOnUse">
<stop stop-color="#6C3B74"/>
<stop offset="1" stop-color="#845590" stop-opacity="0"/>
</linearGradient>
<linearGradient id="paint2_linear_6_347" x1="156.416" y1="194.986" x2="124.237" y2="194.019" gradientUnits="userSpaceOnUse">
<stop offset="0.115168" stop-color="#703D7A"/>
<stop offset="1" stop-color="#703D7A" stop-opacity="0"/>
</linearGradient>
<radialGradient id="paint3_radial_6_347" cx="0" cy="0" r="1" gradientUnits="userSpaceOnUse" gradientTransform="translate(132.592 141.746) rotate(92.4424) scale(14.5835 33.8929)">
<stop stop-color="#2F1A3D"/>
<stop offset="1" stop-color="#532D64" stop-opacity="0"/>
</radialGradient>
<linearGradient id="paint4_linear_6_347" x1="80.6641" y1="13.5742" x2="80.6641" y2="148.73" gradientUnits="userSpaceOnUse">
<stop offset="0.378529" stop-color="#344A7D"/>
<stop offset="0.633316" stop-color="#785790"/>
<stop offset="0.837142" stop-color="#785790"/>
<stop offset="1" stop-color="#9872A2"/>
</linearGradient>
<linearGradient id="paint5_linear_6_347" x1="80.6642" y1="15.1026" x2="80.6642" y2="147.202" gradientUnits="userSpaceOnUse">
<stop stop-color="#475890"/>
<stop offset="1" stop-color="#7A4D87"/>
</linearGradient>
<radialGradient id="paint6_radial_6_347" cx="0" cy="0" r="1" gradientUnits="userSpaceOnUse" gradientTransform="translate(80.6642 46.2891) rotate(-90.0001) scale(32.0313 59.5702)">
<stop offset="0.704268" stop-color="#566298"/>
<stop offset="0.786585" stop-color="#566298" stop-opacity="0"/>
</radialGradient>
<linearGradient id="paint7_linear_6_347" x1="80.6641" y1="23.0583" x2="80.6641" y2="139.247" gradientUnits="userSpaceOnUse">
<stop stop-color="#204083"/>
<stop offset="1" stop-color="#523573"/>
</linearGradient>
<linearGradient id="paint8_linear_6_347" x1="106.185" y1="40.0567" x2="106.185" y2="65.4746" gradientUnits="userSpaceOnUse">
<stop stop-color="#DCDBF2"/>
<stop offset="0.209118" stop-color="#DCDBF2" stop-opacity="0.84797"/>
<stop offset="1" stop-color="#DCDBF2" stop-opacity="0"/>
</linearGradient>
</defs>
</svg>
