<svg width="200" height="200" viewBox="0 0 200 200" fill="none" xmlns="http://www.w3.org/2000/svg">
<g filter="url(#filter0_iiii_6_333)">
<path d="M127.592 14.5991C126.42 13.427 124.831 12.7686 123.173 12.7686H40.2441C35.4116 12.7686 31.4941 16.6861 31.4941 21.5185V178.481C31.4941 183.314 35.4116 187.231 40.2441 187.231H159.756C164.588 187.231 168.506 183.314 168.506 178.481V58.1015C168.506 56.4439 167.847 54.8541 166.675 53.682L127.592 14.5991Z" fill="url(#paint0_linear_6_333)"/>
</g>
<g filter="url(#filter1_f_6_333)">
<path d="M123.444 15.3564C123.444 14.0977 123.805 13.2937 123.12 13.1592C123.771 13.2007 124.718 13.4366 125.317 13.6719C126.088 13.9743 125.137 14.642 125.74 15.2308C125.757 15.248 125.775 15.2653 125.792 15.2827L164.875 54.3656C164.994 54.4848 165.108 54.6082 165.216 54.7357C165.75 55.3628 166.151 56.0857 166.402 56.8604C166.601 57.4765 166.706 58.1254 166.706 58.7851V59.1797C166.706 57.7284 165.656 56.8604 164.875 56.8604H130.944C126.802 56.8604 123.444 53.5025 123.444 49.3604V15.3564Z" fill="#D2C5DF"/>
</g>
<g filter="url(#filter2_ii_6_333)">
<path d="M125.244 14.6727C125.244 13.414 124.256 12.9157 123.571 12.7811C124.222 12.8226 124.858 12.9655 125.457 13.2007C126.227 13.5032 126.937 13.9583 127.54 14.5471C127.557 14.5643 127.575 14.5816 127.592 14.599L166.675 53.6819C166.794 53.8011 166.908 53.9245 167.016 54.052C167.55 54.6791 167.951 55.402 168.202 56.1766C168.402 56.7928 168.506 57.4417 168.506 58.1014V58.496C168.506 57.0447 167.456 56.1766 166.675 56.1766H132.744C128.602 56.1766 125.244 52.8188 125.244 48.6767V14.6727Z" fill="url(#paint1_linear_6_333)"/>
</g>
<path d="M125.244 14.6727C125.244 13.414 124.256 12.9157 123.571 12.7811C124.222 12.8226 124.858 12.9655 125.457 13.2007C126.227 13.5032 126.937 13.9583 127.54 14.5471C127.557 14.5643 127.575 14.5816 127.592 14.599L166.675 53.6819C166.794 53.8011 166.908 53.9245 167.016 54.052C167.55 54.6791 167.951 55.402 168.202 56.1766C168.402 56.7928 168.506 57.4417 168.506 58.1014V58.496C168.506 57.0447 167.456 56.1766 166.675 56.1766H132.744C128.602 56.1766 125.244 52.8188 125.244 48.6767V14.6727Z" fill="url(#paint2_linear_6_333)"/>
<rect x="56.4941" y="74.9756" width="86.9629" height="6.20117" rx="0.496094" fill="url(#paint3_linear_6_333)"/>
<rect x="56.4941" y="93.7256" width="86.9629" height="6.20117" rx="0.496094" fill="url(#paint4_linear_6_333)"/>
<rect x="56.4941" y="112.476" width="86.9629" height="6.20117" rx="0.496094" fill="url(#paint5_linear_6_333)"/>
<rect x="56.4941" y="131.226" width="56.1523" height="6.20117" rx="0.496094" fill="url(#paint6_linear_6_333)"/>
<path d="M162.796 79.3705C163.437 78.8451 164.382 78.9383 164.907 79.5788L187.088 106.617C187.613 107.257 187.52 108.202 186.88 108.728L92.4297 186.21L68.3464 156.852L162.796 79.3705Z" fill="url(#paint7_radial_6_333)"/>
<path d="M162.796 79.3705C163.437 78.8451 164.382 78.9383 164.907 79.5788L187.088 106.617C187.613 107.257 187.52 108.202 186.88 108.728L92.4297 186.21L68.3464 156.852L162.796 79.3705Z" fill="url(#paint8_linear_6_333)"/>
<path d="M162.796 79.3705C163.437 78.8451 164.382 78.9383 164.907 79.5788L187.088 106.617C187.613 107.257 187.52 108.202 186.88 108.728L92.4297 186.21L68.3464 156.852L162.796 79.3705Z" fill="url(#paint9_linear_6_333)"/>
<path d="M162.796 79.3705C163.437 78.8451 164.382 78.9383 164.907 79.5788L187.088 106.617C187.613 107.257 187.52 108.202 186.88 108.728L92.4297 186.21L68.3464 156.852L162.796 79.3705Z" fill="url(#paint10_radial_6_333)"/>
<path d="M61.5161 186.216C61.4165 186.726 61.8067 187.201 62.3269 187.203L89.5368 187.271C90.3198 187.273 91.0872 187.053 91.7502 186.637L92.43 186.21L68.3467 156.852L67.8828 157.313C67.295 157.897 66.896 158.644 66.7373 159.458L61.5161 186.216Z" fill="url(#paint11_linear_6_333)"/>
<path d="M61.5161 186.216C61.4165 186.726 61.8067 187.201 62.3269 187.203L89.5368 187.271C90.3198 187.273 91.0872 187.053 91.7502 186.637L92.43 186.21L68.3467 156.852L67.8828 157.313C67.295 157.897 66.896 158.644 66.7373 159.458L61.5161 186.216Z" fill="url(#paint12_linear_6_333)"/>
<path d="M61.5161 186.216C61.4165 186.726 61.8067 187.201 62.3269 187.203L89.5368 187.271C90.3198 187.273 91.0872 187.053 91.7502 186.637L92.43 186.21L68.3467 156.852L67.8828 157.313C67.295 157.897 66.896 158.644 66.7373 159.458L61.5161 186.216Z" fill="url(#paint13_linear_6_333)"/>
<path d="M168.833 123.532L183.237 111.716C185.889 109.54 186.276 105.627 184.1 102.974L167.895 83.2211C165.72 80.569 161.806 80.1828 159.154 82.3584L144.75 94.1748L168.833 123.532Z" fill="url(#paint14_linear_6_333)"/>
<path d="M168.833 123.532L183.237 111.716C185.889 109.54 186.276 105.627 184.1 102.974L167.895 83.2211C165.72 80.569 161.806 80.1828 159.154 82.3584L144.75 94.1748L168.833 123.532Z" fill="url(#paint15_linear_6_333)"/>
<path d="M168.833 123.532L183.237 111.716C185.889 109.54 186.276 105.627 184.1 102.974L167.895 83.2211C165.72 80.569 161.806 80.1828 159.154 82.3584L144.75 94.1748L168.833 123.532Z" fill="url(#paint16_radial_6_333)"/>
<path d="M130.309 106.021L144.75 94.1746L168.833 123.532L154.392 135.379L130.309 106.021Z" fill="url(#paint17_linear_6_333)"/>
<path d="M130.309 106.021L144.75 94.1746L168.833 123.532L154.392 135.379L130.309 106.021Z" fill="url(#paint18_linear_6_333)"/>
<path d="M62.3267 187.202C61.8065 187.201 61.4163 186.726 61.5159 186.216L63.3474 176.829L71.877 187.226L62.3267 187.202Z" fill="url(#paint19_linear_6_333)"/>
<defs>
<filter id="filter0_iiii_6_333" x="31.3941" y="12.4686" width="137.412" height="174.863" filterUnits="userSpaceOnUse" color-interpolation-filters="sRGB">
<feFlood flood-opacity="0" result="BackgroundImageFix"/>
<feBlend mode="normal" in="SourceGraphic" in2="BackgroundImageFix" result="shape"/>
<feColorMatrix in="SourceAlpha" type="matrix" values="0 0 0 0 0 0 0 0 0 0 0 0 0 0 0 0 0 0 127 0" result="hardAlpha"/>
<feOffset dx="0.3" dy="-0.3"/>
<feGaussianBlur stdDeviation="0.3"/>
<feComposite in2="hardAlpha" operator="arithmetic" k2="-1" k3="1"/>
<feColorMatrix type="matrix" values="0 0 0 0 0.807843 0 0 0 0 0.768627 0 0 0 0 0.85098 0 0 0 1 0"/>
<feBlend mode="normal" in2="shape" result="effect1_innerShadow_6_333"/>
<feColorMatrix in="SourceAlpha" type="matrix" values="0 0 0 0 0 0 0 0 0 0 0 0 0 0 0 0 0 0 127 0" result="hardAlpha"/>
<feOffset dx="0.1" dy="-0.1"/>
<feGaussianBlur stdDeviation="0.1"/>
<feComposite in2="hardAlpha" operator="arithmetic" k2="-1" k3="1"/>
<feColorMatrix type="matrix" values="0 0 0 0 0.709804 0 0 0 0 0.690196 0 0 0 0 0.733333 0 0 0 1 0"/>
<feBlend mode="normal" in2="effect1_innerShadow_6_333" result="effect2_innerShadow_6_333"/>
<feColorMatrix in="SourceAlpha" type="matrix" values="0 0 0 0 0 0 0 0 0 0 0 0 0 0 0 0 0 0 127 0" result="hardAlpha"/>
<feOffset dy="-0.1"/>
<feGaussianBlur stdDeviation="0.1"/>
<feComposite in2="hardAlpha" operator="arithmetic" k2="-1" k3="1"/>
<feColorMatrix type="matrix" values="0 0 0 0 0.72549 0 0 0 0 0.65098 0 0 0 0 0.8 0 0 0 1 0"/>
<feBlend mode="normal" in2="effect2_innerShadow_6_333" result="effect3_innerShadow_6_333"/>
<feColorMatrix in="SourceAlpha" type="matrix" values="0 0 0 0 0 0 0 0 0 0 0 0 0 0 0 0 0 0 127 0" result="hardAlpha"/>
<feOffset dx="-0.15" dy="0.15"/>
<feGaussianBlur stdDeviation="0.05"/>
<feComposite in2="hardAlpha" operator="arithmetic" k2="-1" k3="1"/>
<feColorMatrix type="matrix" values="0 0 0 0 0.952941 0 0 0 0 0.941176 0 0 0 0 0.964706 0 0 0 1 0"/>
<feBlend mode="normal" in2="effect3_innerShadow_6_333" result="effect4_innerShadow_6_333"/>
</filter>
<filter id="filter1_f_6_333" x="122.62" y="12.6592" width="44.5854" height="47.0205" filterUnits="userSpaceOnUse" color-interpolation-filters="sRGB">
<feFlood flood-opacity="0" result="BackgroundImageFix"/>
<feBlend mode="normal" in="SourceGraphic" in2="BackgroundImageFix" result="shape"/>
<feGaussianBlur stdDeviation="0.25" result="effect1_foregroundBlur_6_333"/>
</filter>
<filter id="filter2_ii_6_333" x="123.571" y="12.6811" width="45.0346" height="45.8148" filterUnits="userSpaceOnUse" color-interpolation-filters="sRGB">
<feFlood flood-opacity="0" result="BackgroundImageFix"/>
<feBlend mode="normal" in="SourceGraphic" in2="BackgroundImageFix" result="shape"/>
<feColorMatrix in="SourceAlpha" type="matrix" values="0 0 0 0 0 0 0 0 0 0 0 0 0 0 0 0 0 0 127 0" result="hardAlpha"/>
<feOffset dx="0.1"/>
<feGaussianBlur stdDeviation="0.075"/>
<feComposite in2="hardAlpha" operator="arithmetic" k2="-1" k3="1"/>
<feColorMatrix type="matrix" values="0 0 0 0 0.631373 0 0 0 0 0.611765 0 0 0 0 0.654902 0 0 0 1 0"/>
<feBlend mode="normal" in2="shape" result="effect1_innerShadow_6_333"/>
<feColorMatrix in="SourceAlpha" type="matrix" values="0 0 0 0 0 0 0 0 0 0 0 0 0 0 0 0 0 0 127 0" result="hardAlpha"/>
<feOffset dy="-0.1"/>
<feGaussianBlur stdDeviation="0.075"/>
<feComposite in2="hardAlpha" operator="arithmetic" k2="-1" k3="1"/>
<feColorMatrix type="matrix" values="0 0 0 0 0.752941 0 0 0 0 0.67451 0 0 0 0 0.835294 0 0 0 1 0"/>
<feBlend mode="normal" in2="effect1_innerShadow_6_333" result="effect2_innerShadow_6_333"/>
</filter>
<linearGradient id="paint0_linear_6_333" x1="100" y1="12.7686" x2="100" y2="193.019" gradientUnits="userSpaceOnUse">
<stop stop-color="#E4DCEA"/>
<stop offset="1" stop-color="#CEC1D5"/>
</linearGradient>
<linearGradient id="paint1_linear_6_333" x1="128.369" y1="54.4188" x2="144.873" y2="37.9149" gradientUnits="userSpaceOnUse">
<stop stop-color="#CAC2CE"/>
<stop offset="1" stop-color="#BDB4C1"/>
</linearGradient>
<linearGradient id="paint2_linear_6_333" x1="148.584" y1="34.6923" x2="140.723" y2="42.6281" gradientUnits="userSpaceOnUse">
<stop offset="0.119171" stop-color="#DBDADC"/>
<stop offset="0.577307" stop-color="#CBC7D0" stop-opacity="0"/>
</linearGradient>
<linearGradient id="paint3_linear_6_333" x1="56.4941" y1="78.0762" x2="143.457" y2="78.0762" gradientUnits="userSpaceOnUse">
<stop stop-color="#9C96A2"/>
<stop offset="1" stop-color="#9A95A1"/>
</linearGradient>
<linearGradient id="paint4_linear_6_333" x1="56.4941" y1="96.8262" x2="143.457" y2="96.8262" gradientUnits="userSpaceOnUse">
<stop stop-color="#9C96A2"/>
<stop offset="1" stop-color="#9A95A1"/>
</linearGradient>
<linearGradient id="paint5_linear_6_333" x1="56.4941" y1="115.576" x2="143.457" y2="115.576" gradientUnits="userSpaceOnUse">
<stop stop-color="#9C96A2"/>
<stop offset="1" stop-color="#9A95A1"/>
</linearGradient>
<linearGradient id="paint6_linear_6_333" x1="56.4941" y1="134.326" x2="112.646" y2="134.326" gradientUnits="userSpaceOnUse">
<stop stop-color="#9C96A2"/>
<stop offset="1" stop-color="#9A95A1"/>
</linearGradient>
<radialGradient id="paint7_radial_6_333" cx="0" cy="0" r="1" gradientUnits="userSpaceOnUse" gradientTransform="translate(80.2156 172.323) rotate(-40.0074) scale(81.4387 50.5163)">
<stop stop-color="#FF9130"/>
<stop offset="1" stop-color="#F3633D"/>
</radialGradient>
<linearGradient id="paint8_linear_6_333" x1="100.965" y1="128.082" x2="106.794" y2="134.898" gradientUnits="userSpaceOnUse">
<stop stop-color="#EE9B6A"/>
<stop offset="1" stop-color="#EE9B6A" stop-opacity="0"/>
</linearGradient>
<linearGradient id="paint9_linear_6_333" x1="142.759" y1="147.289" x2="135.668" y2="140.088" gradientUnits="userSpaceOnUse">
<stop stop-color="#E66A62"/>
<stop offset="1" stop-color="#E66A62" stop-opacity="0"/>
</linearGradient>
<radialGradient id="paint10_radial_6_333" cx="0" cy="0" r="1" gradientUnits="userSpaceOnUse" gradientTransform="translate(79.2617 171.449) rotate(-39.2242) scale(75.2119 16.8187)">
<stop stop-color="#FF994D"/>
<stop offset="1" stop-color="#FF994D" stop-opacity="0"/>
</radialGradient>
<linearGradient id="paint11_linear_6_333" x1="70.6485" y1="171.769" x2="79.7879" y2="189.835" gradientUnits="userSpaceOnUse">
<stop stop-color="#D8A587"/>
<stop offset="1" stop-color="#CE7A98"/>
</linearGradient>
<linearGradient id="paint12_linear_6_333" x1="83.3204" y1="173.804" x2="80.9478" y2="175.776" gradientUnits="userSpaceOnUse">
<stop offset="0.207411" stop-color="#FFC09F"/>
<stop offset="1" stop-color="#FCB196" stop-opacity="0"/>
</linearGradient>
<linearGradient id="paint13_linear_6_333" x1="60.9254" y1="170.16" x2="69.6056" y2="171.796" gradientUnits="userSpaceOnUse">
<stop stop-color="#DEBCA3"/>
<stop offset="1" stop-color="#DEBCA3" stop-opacity="0"/>
</linearGradient>
<linearGradient id="paint14_linear_6_333" x1="178.922" y1="94.4267" x2="160.272" y2="109.49" gradientUnits="userSpaceOnUse">
<stop stop-color="#FF6153"/>
<stop offset="1" stop-color="#FF6154"/>
</linearGradient>
<linearGradient id="paint15_linear_6_333" x1="148.942" y1="89.9075" x2="161.114" y2="103.591" gradientUnits="userSpaceOnUse">
<stop stop-color="#F1553E"/>
<stop offset="1" stop-color="#F1553E" stop-opacity="0"/>
</linearGradient>
<radialGradient id="paint16_radial_6_333" cx="0" cy="0" r="1" gradientUnits="userSpaceOnUse" gradientTransform="translate(175.064 97.9467) rotate(140.636) scale(5.6729 12.8871)">
<stop offset="0.177419" stop-color="#FF786D"/>
<stop offset="1" stop-color="#FF786D" stop-opacity="0"/>
</radialGradient>
<linearGradient id="paint17_linear_6_333" x1="137.754" y1="100.506" x2="153.227" y2="117.636" gradientUnits="userSpaceOnUse">
<stop stop-color="#C5C4CB"/>
<stop offset="1" stop-color="#E8DEFA"/>
</linearGradient>
<linearGradient id="paint18_linear_6_333" x1="161.692" y1="131.994" x2="153.077" y2="121.782" gradientUnits="userSpaceOnUse">
<stop stop-color="#C9B9E0"/>
<stop offset="1" stop-color="#C9B9E0" stop-opacity="0"/>
</linearGradient>
<linearGradient id="paint19_linear_6_333" x1="62.8321" y1="181.14" x2="66.605" y2="187.628" gradientUnits="userSpaceOnUse">
<stop stop-color="#461E49"/>
<stop offset="1" stop-color="#450F51"/>
</linearGradient>
</defs>
</svg>
