<svg width="200" height="200" viewBox="0 0 200 200" fill="none" xmlns="http://www.w3.org/2000/svg">
<g filter="url(#filter0_i_6_356)">
<path d="M92.0114 48.1012L89.0625 51.4023L109.912 79.039L129.541 68.7851C128.506 62.5765 126.421 56.4683 123.93 50.894C118.132 37.9211 101.478 37.5041 92.0114 48.1012Z" fill="url(#paint0_radial_6_356)"/>
<path d="M92.0114 48.1012L89.0625 51.4023L109.912 79.039L129.541 68.7851C128.506 62.5765 126.421 56.4683 123.93 50.894C118.132 37.9211 101.478 37.5041 92.0114 48.1012Z" fill="url(#paint1_radial_6_356)"/>
<path d="M92.0114 48.1012L89.0625 51.4023L109.912 79.039L129.541 68.7851C128.506 62.5765 126.421 56.4683 123.93 50.894C118.132 37.9211 101.478 37.5041 92.0114 48.1012Z" fill="url(#paint2_linear_6_356)"/>
</g>
<g filter="url(#filter1_i_6_356)">
<path d="M59.0331 17.6132L36.4668 40.1359L35.1074 49.9374L25.1836 51.3973L13.9004 62.6587C10.9153 65.638 10.8226 70.4364 13.7307 73.4909C29.0197 89.5488 58.2556 119.413 85.0585 145.103C127.393 185.68 162.06 186.363 166.846 186.949C170.116 187.35 173.193 186.754 173.975 186.363C178.76 183.971 187.757 177.837 186.572 171.519C185.107 163.707 180.392 161.451 171.924 155.016C166.83 151.145 162.809 143.704 161.67 140.904L130.743 68.0123C128.512 62.7539 122.137 60.6959 117.253 63.6572L115.134 64.942C112.648 66.4489 109.451 66.0433 107.421 63.9632L79.6002 35.4618C77.9733 33.7951 77.4081 31.362 78.1337 29.1489L79.8828 23.8144C80.8268 20.9823 80.9863 14.957 74.2675 13.3163C67.5488 11.6757 61.3118 15.4973 59.0331 17.6132Z" fill="url(#paint3_linear_6_356)"/>
<path d="M59.0331 17.6132L36.4668 40.1359L35.1074 49.9374L25.1836 51.3973L13.9004 62.6587C10.9153 65.638 10.8226 70.4364 13.7307 73.4909C29.0197 89.5488 58.2556 119.413 85.0585 145.103C127.393 185.68 162.06 186.363 166.846 186.949C170.116 187.35 173.193 186.754 173.975 186.363C178.76 183.971 187.757 177.837 186.572 171.519C185.107 163.707 180.392 161.451 171.924 155.016C166.83 151.145 162.809 143.704 161.67 140.904L130.743 68.0123C128.512 62.7539 122.137 60.6959 117.253 63.6572L115.134 64.942C112.648 66.4489 109.451 66.0433 107.421 63.9632L79.6002 35.4618C77.9733 33.7951 77.4081 31.362 78.1337 29.1489L79.8828 23.8144C80.8268 20.9823 80.9863 14.957 74.2675 13.3163C67.5488 11.6757 61.3118 15.4973 59.0331 17.6132Z" fill="url(#paint4_linear_6_356)"/>
<path d="M59.0331 17.6132L36.4668 40.1359L35.1074 49.9374L25.1836 51.3973L13.9004 62.6587C10.9153 65.638 10.8226 70.4364 13.7307 73.4909C29.0197 89.5488 58.2556 119.413 85.0585 145.103C127.393 185.68 162.06 186.363 166.846 186.949C170.116 187.35 173.193 186.754 173.975 186.363C178.76 183.971 187.757 177.837 186.572 171.519C185.107 163.707 180.392 161.451 171.924 155.016C166.83 151.145 162.809 143.704 161.67 140.904L130.743 68.0123C128.512 62.7539 122.137 60.6959 117.253 63.6572L115.134 64.942C112.648 66.4489 109.451 66.0433 107.421 63.9632L79.6002 35.4618C77.9733 33.7951 77.4081 31.362 78.1337 29.1489L79.8828 23.8144C80.8268 20.9823 80.9863 14.957 74.2675 13.3163C67.5488 11.6757 61.3118 15.4973 59.0331 17.6132Z" fill="url(#paint5_linear_6_356)"/>
</g>
<g filter="url(#filter2_f_6_356)">
<path d="M147.651 156.782L114.111 69.0781L127.002 68.1015L164.03 157.279C164.209 157.709 164.53 158.063 164.943 158.28C167.695 159.724 173.06 162.517 176.807 164.391C180.869 166.422 181.885 170.966 181.885 172.984L149.233 158.452C148.505 158.127 147.936 157.527 147.651 156.782Z" fill="url(#paint6_linear_6_356)"/>
</g>
<g filter="url(#filter3_f_6_356)">
<rect x="114.453" y="78.4531" width="26.8066" height="13.3789" rx="1.07812" fill="url(#paint7_linear_6_356)"/>
</g>
<g filter="url(#filter4_f_6_356)">
<rect x="124.414" y="99.498" width="26.8066" height="13.3789" rx="1.07812" fill="url(#paint8_linear_6_356)"/>
</g>
<g filter="url(#filter5_f_6_356)">
<rect x="132.764" y="121.617" width="26.8066" height="13.3789" rx="1.07812" fill="url(#paint9_linear_6_356)"/>
</g>
<g filter="url(#filter6_i_6_356)">
<rect x="115.283" y="77.4765" width="29.6875" height="13.4766" rx="1.07812" fill="url(#paint10_radial_6_356)"/>
<rect x="115.283" y="77.4765" width="29.6875" height="13.4766" rx="1.07812" fill="url(#paint11_radial_6_356)"/>
</g>
<g filter="url(#filter7_i_6_356)">
<rect x="125.342" y="98.3749" width="29.6875" height="13.4766" rx="1.07812" fill="url(#paint12_radial_6_356)"/>
<rect x="125.342" y="98.3749" width="29.6875" height="13.4766" rx="1.07812" fill="url(#paint13_radial_6_356)"/>
</g>
<g filter="url(#filter8_i_6_356)">
<rect x="133.154" y="120.543" width="29.6875" height="13.4766" rx="1.07812" fill="url(#paint14_radial_6_356)"/>
<rect x="133.154" y="120.543" width="29.6875" height="13.4766" rx="1.07812" fill="url(#paint15_radial_6_356)"/>
</g>
<g filter="url(#filter9_i_6_356)">
<path d="M183.249 179.664C162.806 177.132 137.65 171.556 117.041 153.355C105.632 142.768 102.303 135.289 98.2954 126.284C95.1538 119.225 91.5947 111.227 83.3984 100.059C68.1999 79.3505 49.7595 61.2514 38.4324 50.1338C36.1267 47.8709 34.1158 45.8972 32.4869 44.2496C32.448 44.2102 32.3846 44.2102 32.3454 44.2494L13.9004 62.6587C10.9153 65.638 10.8226 70.4365 13.7307 73.4909C29.0197 89.5488 58.2556 119.413 85.0585 145.103C124.786 183.181 157.762 186.128 165.627 186.831C166.143 186.877 166.551 186.913 166.846 186.949C170.116 187.35 173.193 186.754 173.975 186.363C176.591 185.055 180.467 182.628 183.249 179.664Z" fill="url(#paint16_linear_6_356)"/>
<path d="M183.249 179.664C162.806 177.132 137.65 171.556 117.041 153.355C105.632 142.768 102.303 135.289 98.2954 126.284C95.1538 119.225 91.5947 111.227 83.3984 100.059C68.1999 79.3505 49.7595 61.2514 38.4324 50.1338C36.1267 47.8709 34.1158 45.8972 32.4869 44.2496C32.448 44.2102 32.3846 44.2102 32.3454 44.2494L13.9004 62.6587C10.9153 65.638 10.8226 70.4365 13.7307 73.4909C29.0197 89.5488 58.2556 119.413 85.0585 145.103C124.786 183.181 157.762 186.128 165.627 186.831C166.143 186.877 166.551 186.913 166.846 186.949C170.116 187.35 173.193 186.754 173.975 186.363C176.591 185.055 180.467 182.628 183.249 179.664Z" fill="url(#paint17_linear_6_356)"/>
</g>
<path d="M32.4215 44.1734C32.3819 44.2129 32.3824 44.2772 32.4226 44.3161C32.6426 44.5284 32.8619 44.7402 33.0798 44.9506C35.3557 47.1479 37.4725 49.1917 38.4324 50.1338C49.7595 61.2513 68.1999 79.3505 83.3984 100.059C85.7214 103.225 87.6719 106.135 89.346 108.842L88.1551 87.6435C87.6388 78.4535 83.7606 69.7743 77.259 63.2587L45.3442 31.2756L32.4215 44.1734Z" fill="url(#paint18_linear_6_356)"/>
<path d="M32.4215 44.1734C32.3819 44.2129 32.3824 44.2772 32.4226 44.3161C32.6426 44.5284 32.8619 44.7402 33.0798 44.9506C35.3557 47.1479 37.4725 49.1917 38.4324 50.1338C49.7595 61.2513 68.1999 79.3505 83.3984 100.059C85.7214 103.225 87.6719 106.135 89.346 108.842L88.1551 87.6435C87.6388 78.4535 83.7606 69.7743 77.259 63.2587L45.3442 31.2756L32.4215 44.1734Z" fill="url(#paint19_linear_6_356)"/>
<g filter="url(#filter10_f_6_356)">
<path d="M75.4395 14.9765C76.9043 16.1158 79.4629 19.3906 77.9785 23.3749C76.6808 26.8582 75.612 30.3216 74.9287 32.4861C74.7632 33.0103 74.8942 33.5837 75.2732 33.9818L110.52 71.0049C111.059 71.5713 111.943 71.6284 112.55 71.1361L119.189 65.7578C120.101 65.0091 122.607 63.9609 125.342 65.7578" stroke="url(#paint20_radial_6_356)" stroke-width="0.25"/>
<path d="M75.4395 14.9765C76.9043 16.1158 79.4629 19.3906 77.9785 23.3749C76.6808 26.8582 75.612 30.3216 74.9287 32.4861C74.7632 33.0103 74.8942 33.5837 75.2732 33.9818L110.52 71.0049C111.059 71.5713 111.943 71.6284 112.55 71.1361L119.189 65.7578C120.101 65.0091 122.607 63.9609 125.342 65.7578" stroke="url(#paint21_radial_6_356)" stroke-width="0.25"/>
</g>
<g filter="url(#filter11_f_6_356)">
<path d="M124.268 83.1406H141.26" stroke="url(#paint22_linear_6_356)" stroke-width="0.65" stroke-linecap="round"/>
</g>
<g filter="url(#filter12_f_6_356)">
<path d="M134.229 103.941H151.221" stroke="url(#paint23_linear_6_356)" stroke-width="0.65" stroke-linecap="round"/>
</g>
<g filter="url(#filter13_f_6_356)">
<path d="M141.26 126.109H158.252" stroke="url(#paint24_linear_6_356)" stroke-width="0.65" stroke-linecap="round"/>
</g>
<defs>
<filter id="filter0_i_6_356" x="88.9625" y="40.6178" width="40.5785" height="38.5712" filterUnits="userSpaceOnUse" color-interpolation-filters="sRGB">
<feFlood flood-opacity="0" result="BackgroundImageFix"/>
<feBlend mode="normal" in="SourceGraphic" in2="BackgroundImageFix" result="shape"/>
<feColorMatrix in="SourceAlpha" type="matrix" values="0 0 0 0 0 0 0 0 0 0 0 0 0 0 0 0 0 0 127 0" result="hardAlpha"/>
<feOffset dx="-0.1" dy="0.15"/>
<feGaussianBlur stdDeviation="0.25"/>
<feComposite in2="hardAlpha" operator="arithmetic" k2="-1" k3="1"/>
<feColorMatrix type="matrix" values="0 0 0 0 0.639216 0 0 0 0 0.623529 0 0 0 0 0.756863 0 0 0 1 0"/>
<feBlend mode="normal" in2="shape" result="effect1_innerShadow_6_356"/>
</filter>
<filter id="filter1_i_6_356" x="11.6045" y="12.918" width="175.324" height="174.314" filterUnits="userSpaceOnUse" color-interpolation-filters="sRGB">
<feFlood flood-opacity="0" result="BackgroundImageFix"/>
<feBlend mode="normal" in="SourceGraphic" in2="BackgroundImageFix" result="shape"/>
<feColorMatrix in="SourceAlpha" type="matrix" values="0 0 0 0 0 0 0 0 0 0 0 0 0 0 0 0 0 0 127 0" result="hardAlpha"/>
<feOffset dx="0.25" dy="0.15"/>
<feGaussianBlur stdDeviation="0.25"/>
<feComposite in2="hardAlpha" operator="arithmetic" k2="-1" k3="1"/>
<feColorMatrix type="matrix" values="0 0 0 0 0.521569 0 0 0 0 0.505882 0 0 0 0 0.564706 0 0 0 1 0"/>
<feBlend mode="normal" in2="shape" result="effect1_innerShadow_6_356"/>
</filter>
<filter id="filter2_f_6_356" x="112.611" y="66.6015" width="70.7734" height="107.883" filterUnits="userSpaceOnUse" color-interpolation-filters="sRGB">
<feFlood flood-opacity="0" result="BackgroundImageFix"/>
<feBlend mode="normal" in="SourceGraphic" in2="BackgroundImageFix" result="shape"/>
<feGaussianBlur stdDeviation="0.75" result="effect1_foregroundBlur_6_356"/>
</filter>
<filter id="filter3_f_6_356" x="114.203" y="78.2031" width="27.3066" height="13.8789" filterUnits="userSpaceOnUse" color-interpolation-filters="sRGB">
<feFlood flood-opacity="0" result="BackgroundImageFix"/>
<feBlend mode="normal" in="SourceGraphic" in2="BackgroundImageFix" result="shape"/>
<feGaussianBlur stdDeviation="0.125" result="effect1_foregroundBlur_6_356"/>
</filter>
<filter id="filter4_f_6_356" x="124.164" y="99.248" width="27.3066" height="13.8789" filterUnits="userSpaceOnUse" color-interpolation-filters="sRGB">
<feFlood flood-opacity="0" result="BackgroundImageFix"/>
<feBlend mode="normal" in="SourceGraphic" in2="BackgroundImageFix" result="shape"/>
<feGaussianBlur stdDeviation="0.125" result="effect1_foregroundBlur_6_356"/>
</filter>
<filter id="filter5_f_6_356" x="132.514" y="121.367" width="27.3066" height="13.8789" filterUnits="userSpaceOnUse" color-interpolation-filters="sRGB">
<feFlood flood-opacity="0" result="BackgroundImageFix"/>
<feBlend mode="normal" in="SourceGraphic" in2="BackgroundImageFix" result="shape"/>
<feGaussianBlur stdDeviation="0.125" result="effect1_foregroundBlur_6_356"/>
</filter>
<filter id="filter6_i_6_356" x="115.283" y="77.4765" width="29.9375" height="13.5266" filterUnits="userSpaceOnUse" color-interpolation-filters="sRGB">
<feFlood flood-opacity="0" result="BackgroundImageFix"/>
<feBlend mode="normal" in="SourceGraphic" in2="BackgroundImageFix" result="shape"/>
<feColorMatrix in="SourceAlpha" type="matrix" values="0 0 0 0 0 0 0 0 0 0 0 0 0 0 0 0 0 0 127 0" result="hardAlpha"/>
<feOffset dx="0.25" dy="0.05"/>
<feGaussianBlur stdDeviation="0.375"/>
<feComposite in2="hardAlpha" operator="arithmetic" k2="-1" k3="1"/>
<feColorMatrix type="matrix" values="0 0 0 0 0.654902 0 0 0 0 0.619608 0 0 0 0 0.705882 0 0 0 1 0"/>
<feBlend mode="normal" in2="shape" result="effect1_innerShadow_6_356"/>
</filter>
<filter id="filter7_i_6_356" x="125.342" y="98.3749" width="29.9375" height="13.5266" filterUnits="userSpaceOnUse" color-interpolation-filters="sRGB">
<feFlood flood-opacity="0" result="BackgroundImageFix"/>
<feBlend mode="normal" in="SourceGraphic" in2="BackgroundImageFix" result="shape"/>
<feColorMatrix in="SourceAlpha" type="matrix" values="0 0 0 0 0 0 0 0 0 0 0 0 0 0 0 0 0 0 127 0" result="hardAlpha"/>
<feOffset dx="0.25" dy="0.05"/>
<feGaussianBlur stdDeviation="0.375"/>
<feComposite in2="hardAlpha" operator="arithmetic" k2="-1" k3="1"/>
<feColorMatrix type="matrix" values="0 0 0 0 0.654902 0 0 0 0 0.619608 0 0 0 0 0.705882 0 0 0 1 0"/>
<feBlend mode="normal" in2="shape" result="effect1_innerShadow_6_356"/>
</filter>
<filter id="filter8_i_6_356" x="133.154" y="120.543" width="29.9375" height="13.5266" filterUnits="userSpaceOnUse" color-interpolation-filters="sRGB">
<feFlood flood-opacity="0" result="BackgroundImageFix"/>
<feBlend mode="normal" in="SourceGraphic" in2="BackgroundImageFix" result="shape"/>
<feColorMatrix in="SourceAlpha" type="matrix" values="0 0 0 0 0 0 0 0 0 0 0 0 0 0 0 0 0 0 127 0" result="hardAlpha"/>
<feOffset dx="0.25" dy="0.05"/>
<feGaussianBlur stdDeviation="0.375"/>
<feComposite in2="hardAlpha" operator="arithmetic" k2="-1" k3="1"/>
<feColorMatrix type="matrix" values="0 0 0 0 0.654902 0 0 0 0 0.619608 0 0 0 0 0.705882 0 0 0 1 0"/>
<feBlend mode="normal" in2="shape" result="effect1_innerShadow_6_356"/>
</filter>
<filter id="filter9_i_6_356" x="11.6045" y="43.72" width="171.795" height="143.362" filterUnits="userSpaceOnUse" color-interpolation-filters="sRGB">
<feFlood flood-opacity="0" result="BackgroundImageFix"/>
<feBlend mode="normal" in="SourceGraphic" in2="BackgroundImageFix" result="shape"/>
<feColorMatrix in="SourceAlpha" type="matrix" values="0 0 0 0 0 0 0 0 0 0 0 0 0 0 0 0 0 0 127 0" result="hardAlpha"/>
<feOffset dx="0.15" dy="-0.5"/>
<feGaussianBlur stdDeviation="0.5"/>
<feComposite in2="hardAlpha" operator="arithmetic" k2="-1" k3="1"/>
<feColorMatrix type="matrix" values="0 0 0 0 0.772549 0 0 0 0 0.54902 0 0 0 0 0.952941 0 0 0 1 0"/>
<feBlend mode="normal" in2="shape" result="effect1_innerShadow_6_356"/>
</filter>
<filter id="filter10_f_6_356" x="74.2334" y="14.3778" width="51.677" height="57.7178" filterUnits="userSpaceOnUse" color-interpolation-filters="sRGB">
<feFlood flood-opacity="0" result="BackgroundImageFix"/>
<feBlend mode="normal" in="SourceGraphic" in2="BackgroundImageFix" result="shape"/>
<feGaussianBlur stdDeviation="0.25" result="effect1_foregroundBlur_6_356"/>
</filter>
<filter id="filter11_f_6_356" x="123.543" y="82.4156" width="18.4421" height="1.45002" filterUnits="userSpaceOnUse" color-interpolation-filters="sRGB">
<feFlood flood-opacity="0" result="BackgroundImageFix"/>
<feBlend mode="normal" in="SourceGraphic" in2="BackgroundImageFix" result="shape"/>
<feGaussianBlur stdDeviation="0.2" result="effect1_foregroundBlur_6_356"/>
</filter>
<filter id="filter12_f_6_356" x="133.504" y="103.216" width="18.4421" height="1.45002" filterUnits="userSpaceOnUse" color-interpolation-filters="sRGB">
<feFlood flood-opacity="0" result="BackgroundImageFix"/>
<feBlend mode="normal" in="SourceGraphic" in2="BackgroundImageFix" result="shape"/>
<feGaussianBlur stdDeviation="0.2" result="effect1_foregroundBlur_6_356"/>
</filter>
<filter id="filter13_f_6_356" x="140.535" y="125.384" width="18.4421" height="1.45002" filterUnits="userSpaceOnUse" color-interpolation-filters="sRGB">
<feFlood flood-opacity="0" result="BackgroundImageFix"/>
<feBlend mode="normal" in="SourceGraphic" in2="BackgroundImageFix" result="shape"/>
<feGaussianBlur stdDeviation="0.2" result="effect1_foregroundBlur_6_356"/>
</filter>
<radialGradient id="paint0_radial_6_356" cx="0" cy="0" r="1" gradientUnits="userSpaceOnUse" gradientTransform="translate(125.83 56.4804) rotate(160.534) scale(24.0298 34.0984)">
<stop stop-color="#8379B9"/>
<stop offset="1" stop-color="#67579A"/>
</radialGradient>
<radialGradient id="paint1_radial_6_356" cx="0" cy="0" r="1" gradientUnits="userSpaceOnUse" gradientTransform="translate(117.432 71.3242) rotate(159.605) scale(16.2532 13.3828)">
<stop offset="0.501326" stop-color="#5D4786"/>
<stop offset="1" stop-color="#5D4786" stop-opacity="0"/>
</radialGradient>
<linearGradient id="paint2_linear_6_356" x1="103.564" y1="63.707" x2="111.768" y2="52.5742" gradientUnits="userSpaceOnUse">
<stop offset="0.0664274" stop-color="#5D4786"/>
<stop offset="1" stop-color="#5D4786" stop-opacity="0"/>
</linearGradient>
<linearGradient id="paint3_linear_6_356" x1="141.65" y1="168.59" x2="63.5254" y2="25.2304" gradientUnits="userSpaceOnUse">
<stop stop-color="#C0A6DC"/>
<stop offset="1" stop-color="#A591BA"/>
</linearGradient>
<linearGradient id="paint4_linear_6_356" x1="54.541" y1="21.7148" x2="89.3066" y2="53.3554" gradientUnits="userSpaceOnUse">
<stop stop-color="#77757A"/>
<stop offset="1" stop-color="#77757A" stop-opacity="0"/>
</linearGradient>
<linearGradient id="paint5_linear_6_356" x1="49.4629" y1="21.9101" x2="56.6894" y2="28.746" gradientUnits="userSpaceOnUse">
<stop stop-color="#8B8B8C"/>
<stop offset="1" stop-color="#8B8B8C" stop-opacity="0"/>
</linearGradient>
<linearGradient id="paint6_linear_6_356" x1="145.5" y1="114" x2="134" y2="119.5" gradientUnits="userSpaceOnUse">
<stop stop-color="#C9C5D2" stop-opacity="0.8"/>
<stop offset="1" stop-color="#DBD7E5" stop-opacity="0"/>
</linearGradient>
<linearGradient id="paint7_linear_6_356" x1="115.511" y1="88.1479" x2="128.005" y2="91.2322" gradientUnits="userSpaceOnUse">
<stop stop-color="#8E6AAE"/>
<stop offset="1" stop-color="#827C8D"/>
</linearGradient>
<linearGradient id="paint8_linear_6_356" x1="125.472" y1="109.193" x2="137.965" y2="112.277" gradientUnits="userSpaceOnUse">
<stop stop-color="#8E6AAE"/>
<stop offset="1" stop-color="#827C8D"/>
</linearGradient>
<linearGradient id="paint9_linear_6_356" x1="133.822" y1="131.312" x2="146.315" y2="134.396" gradientUnits="userSpaceOnUse">
<stop stop-color="#8E6AAE"/>
<stop offset="1" stop-color="#827C8D"/>
</linearGradient>
<radialGradient id="paint10_radial_6_356" cx="0" cy="0" r="1" gradientUnits="userSpaceOnUse" gradientTransform="translate(118.213 90.9531) scale(26.7578 12.6175)">
<stop stop-color="#CA98F6"/>
<stop offset="1" stop-color="#DFDEE6"/>
</radialGradient>
<radialGradient id="paint11_radial_6_356" cx="0" cy="0" r="1" gradientUnits="userSpaceOnUse" gradientTransform="translate(116.455 80.5038) rotate(30.8811) scale(11.6063 12.7107)">
<stop stop-color="#B9A5D0"/>
<stop offset="1" stop-color="#B9A5D0" stop-opacity="0"/>
</radialGradient>
<radialGradient id="paint12_radial_6_356" cx="0" cy="0" r="1" gradientUnits="userSpaceOnUse" gradientTransform="translate(128.271 111.852) scale(26.7578 12.6175)">
<stop stop-color="#CA98F6"/>
<stop offset="1" stop-color="#DFDEE6"/>
</radialGradient>
<radialGradient id="paint13_radial_6_356" cx="0" cy="0" r="1" gradientUnits="userSpaceOnUse" gradientTransform="translate(126.514 101.402) rotate(30.8811) scale(11.6063 12.7107)">
<stop stop-color="#B9A5D0"/>
<stop offset="1" stop-color="#B9A5D0" stop-opacity="0"/>
</radialGradient>
<radialGradient id="paint14_radial_6_356" cx="0" cy="0" r="1" gradientUnits="userSpaceOnUse" gradientTransform="translate(136.084 134.019) scale(26.7578 12.6175)">
<stop stop-color="#CA98F6"/>
<stop offset="1" stop-color="#DFDEE6"/>
</radialGradient>
<radialGradient id="paint15_radial_6_356" cx="0" cy="0" r="1" gradientUnits="userSpaceOnUse" gradientTransform="translate(134.326 123.57) rotate(30.8811) scale(11.6063 12.7107)">
<stop stop-color="#B9A5D0"/>
<stop offset="1" stop-color="#B9A5D0" stop-opacity="0"/>
</radialGradient>
<linearGradient id="paint16_linear_6_356" x1="116.65" y1="173.277" x2="21.7285" y2="72.1054" gradientUnits="userSpaceOnUse">
<stop stop-color="#E5C7FF"/>
<stop offset="1" stop-color="#D1BEE6"/>
</linearGradient>
<linearGradient id="paint17_linear_6_356" x1="18.6035" y1="53.746" x2="43.6035" y2="78.746" gradientUnits="userSpaceOnUse">
<stop stop-color="#A3A2A5"/>
<stop offset="1" stop-color="#BEB4CD" stop-opacity="0"/>
</linearGradient>
<linearGradient id="paint18_linear_6_356" x1="60.8476" y1="51.0116" x2="65.8691" y2="103.746" gradientUnits="userSpaceOnUse">
<stop stop-color="#5F5796"/>
<stop offset="0.599493" stop-color="#714699"/>
</linearGradient>
<linearGradient id="paint19_linear_6_356" x1="37.3535" y1="38.5116" x2="42.041" y2="42.8085" gradientUnits="userSpaceOnUse">
<stop stop-color="#73738B"/>
<stop offset="1" stop-color="#73738B" stop-opacity="0"/>
</linearGradient>
<radialGradient id="paint20_radial_6_356" cx="0" cy="0" r="1" gradientUnits="userSpaceOnUse" gradientTransform="translate(80.7129 19.371) rotate(81.2538) scale(24.4049 21.6886)">
<stop offset="0.29571" stop-color="#BAB2C4"/>
<stop offset="1" stop-color="#BAB2C4" stop-opacity="0"/>
</radialGradient>
<radialGradient id="paint21_radial_6_356" cx="0" cy="0" r="1" gradientUnits="userSpaceOnUse" gradientTransform="translate(121.533 70.1523) rotate(-147.031) scale(51.6822 45.9299)">
<stop stop-color="#CFCBD5"/>
<stop offset="1" stop-color="#BAB2C4" stop-opacity="0"/>
</radialGradient>
<linearGradient id="paint22_linear_6_356" x1="122.998" y1="83.3749" x2="152.002" y2="83.3749" gradientUnits="userSpaceOnUse">
<stop stop-color="#F3E7FF"/>
<stop offset="1" stop-color="#F3E7FF" stop-opacity="0"/>
</linearGradient>
<linearGradient id="paint23_linear_6_356" x1="132.959" y1="104.176" x2="161.963" y2="104.176" gradientUnits="userSpaceOnUse">
<stop stop-color="#F3E7FF"/>
<stop offset="1" stop-color="#F3E7FF" stop-opacity="0"/>
</linearGradient>
<linearGradient id="paint24_linear_6_356" x1="139.99" y1="126.344" x2="168.994" y2="126.344" gradientUnits="userSpaceOnUse">
<stop stop-color="#F3E7FF"/>
<stop offset="1" stop-color="#F3E7FF" stop-opacity="0"/>
</linearGradient>
</defs>
</svg>
